<mxfile host="Electron" agent="Mozilla/5.0 (Windows NT 10.0; Win64; x64) AppleWebKit/537.36 (KHTML, like Gecko) draw.io/27.0.9 Chrome/134.0.6998.205 Electron/35.4.0 Safari/537.36" version="27.0.9">
  <diagram name="Page-1" id="XQFHyq89NjRpgRzXGllF">
    <mxGraphModel dx="1564" dy="1011" grid="1" gridSize="10" guides="1" tooltips="1" connect="1" arrows="1" fold="1" page="1" pageScale="1" pageWidth="850" pageHeight="1100" math="0" shadow="0">
      <root>
        <mxCell id="0" />
        <mxCell id="1" parent="0" />
        <mxCell id="fSD3GuovJM5WZt5JX9Pq-29" value="" style="verticalLabelPosition=bottom;verticalAlign=top;html=1;shape=mxgraph.flowchart.on-page_reference;fillColor=#19AAFF;" vertex="1" parent="1">
          <mxGeometry x="97.5" y="50" width="60" height="60" as="geometry" />
        </mxCell>
        <mxCell id="fSD3GuovJM5WZt5JX9Pq-30" value="ورود به داشبورد" style="rounded=1;whiteSpace=wrap;html=1;arcSize=40;fontColor=#000000;fillColor=#87FFA4;strokeColor=#4BFF30;" vertex="1" parent="1">
          <mxGeometry x="52.5" y="130" width="150" height="40" as="geometry" />
        </mxCell>
        <mxCell id="fSD3GuovJM5WZt5JX9Pq-31" value="" style="endArrow=none;html=1;rounded=0;" edge="1" parent="1" source="fSD3GuovJM5WZt5JX9Pq-29" target="fSD3GuovJM5WZt5JX9Pq-30">
          <mxGeometry relative="1" as="geometry">
            <mxPoint x="147.5" y="180" as="sourcePoint" />
            <mxPoint x="307.5" y="180" as="targetPoint" />
          </mxGeometry>
        </mxCell>
        <mxCell id="fSD3GuovJM5WZt5JX9Pq-32" value="انتخاب دانش آموز" style="whiteSpace=wrap;html=1;fillColor=#87FFA4;strokeColor=#4BFF30;fontColor=#000000;rounded=1;arcSize=40;" vertex="1" parent="1">
          <mxGeometry x="65" y="200" width="120" height="60" as="geometry" />
        </mxCell>
        <mxCell id="fSD3GuovJM5WZt5JX9Pq-33" value="" style="endArrow=none;html=1;rounded=0;" edge="1" parent="1" source="fSD3GuovJM5WZt5JX9Pq-30" target="fSD3GuovJM5WZt5JX9Pq-32">
          <mxGeometry relative="1" as="geometry">
            <mxPoint x="132.5" y="250" as="sourcePoint" />
            <mxPoint x="132.5" y="410" as="targetPoint" />
          </mxGeometry>
        </mxCell>
        <mxCell id="fSD3GuovJM5WZt5JX9Pq-34" value="" style="endArrow=none;html=1;rounded=0;" edge="1" parent="1" source="fSD3GuovJM5WZt5JX9Pq-32" target="fSD3GuovJM5WZt5JX9Pq-53">
          <mxGeometry relative="1" as="geometry">
            <mxPoint x="132.5" y="360" as="sourcePoint" />
            <mxPoint x="132.5" y="520" as="targetPoint" />
          </mxGeometry>
        </mxCell>
        <mxCell id="fSD3GuovJM5WZt5JX9Pq-35" value="درخواست ثبت" style="whiteSpace=wrap;html=1;fillColor=#87FFA4;strokeColor=#4BFF30;fontColor=#000000;rounded=1;arcSize=40;" vertex="1" parent="1">
          <mxGeometry x="55" y="500" width="145" height="60" as="geometry" />
        </mxCell>
        <mxCell id="fSD3GuovJM5WZt5JX9Pq-36" value="" style="endArrow=none;html=1;rounded=0;" edge="1" parent="1" source="fSD3GuovJM5WZt5JX9Pq-35" target="fSD3GuovJM5WZt5JX9Pq-38">
          <mxGeometry relative="1" as="geometry">
            <mxPoint x="125" y="540" as="sourcePoint" />
            <mxPoint x="132.5" y="710" as="targetPoint" />
          </mxGeometry>
        </mxCell>
        <mxCell id="fSD3GuovJM5WZt5JX9Pq-37" value="" style="edgeStyle=orthogonalEdgeStyle;rounded=0;orthogonalLoop=1;jettySize=auto;html=1;" edge="1" parent="1" source="fSD3GuovJM5WZt5JX9Pq-38" target="fSD3GuovJM5WZt5JX9Pq-41">
          <mxGeometry relative="1" as="geometry" />
        </mxCell>
        <mxCell id="fSD3GuovJM5WZt5JX9Pq-38" value="بررسی قواعد:&lt;br&gt;&lt;div&gt;نمره باید یکی از موارد معتبر باشد&lt;/div&gt;&lt;div&gt;A1, A2, B1, B2, C1 , ...&lt;/div&gt;" style="whiteSpace=wrap;html=1;fillColor=#87FFA4;strokeColor=#4BFF30;fontColor=#000000;rounded=1;arcSize=40;" vertex="1" parent="1">
          <mxGeometry x="40" y="600" width="180" height="90" as="geometry" />
        </mxCell>
        <mxCell id="fSD3GuovJM5WZt5JX9Pq-39" value="درست" style="edgeStyle=orthogonalEdgeStyle;rounded=0;orthogonalLoop=1;jettySize=auto;html=1;" edge="1" parent="1" source="fSD3GuovJM5WZt5JX9Pq-41" target="fSD3GuovJM5WZt5JX9Pq-43">
          <mxGeometry relative="1" as="geometry" />
        </mxCell>
        <mxCell id="fSD3GuovJM5WZt5JX9Pq-40" value="نادرست" style="edgeStyle=orthogonalEdgeStyle;rounded=0;orthogonalLoop=1;jettySize=auto;html=1;" edge="1" parent="1" source="fSD3GuovJM5WZt5JX9Pq-41" target="fSD3GuovJM5WZt5JX9Pq-45">
          <mxGeometry relative="1" as="geometry" />
        </mxCell>
        <mxCell id="fSD3GuovJM5WZt5JX9Pq-41" value="" style="rhombus;whiteSpace=wrap;html=1;fillColor=#87FFA4;strokeColor=#4BFF30;fontColor=#000000;rounded=1;arcSize=40;" vertex="1" parent="1">
          <mxGeometry x="350" y="605" width="80" height="80" as="geometry" />
        </mxCell>
        <mxCell id="fSD3GuovJM5WZt5JX9Pq-42" style="edgeStyle=orthogonalEdgeStyle;rounded=0;orthogonalLoop=1;jettySize=auto;html=1;" edge="1" parent="1" source="fSD3GuovJM5WZt5JX9Pq-43" target="fSD3GuovJM5WZt5JX9Pq-51">
          <mxGeometry relative="1" as="geometry" />
        </mxCell>
        <mxCell id="fSD3GuovJM5WZt5JX9Pq-43" value="ثبت در دیتابیس" style="whiteSpace=wrap;html=1;fillColor=#87FFA4;strokeColor=#4BFF30;fontColor=#000000;rounded=1;arcSize=40;" vertex="1" parent="1">
          <mxGeometry x="330" y="770" width="120" height="60" as="geometry" />
        </mxCell>
        <mxCell id="fSD3GuovJM5WZt5JX9Pq-44" value="" style="edgeStyle=orthogonalEdgeStyle;rounded=0;orthogonalLoop=1;jettySize=auto;html=1;" edge="1" parent="1" source="fSD3GuovJM5WZt5JX9Pq-45" target="fSD3GuovJM5WZt5JX9Pq-47">
          <mxGeometry relative="1" as="geometry" />
        </mxCell>
        <mxCell id="fSD3GuovJM5WZt5JX9Pq-45" value="نمایش پیغام خطای مناسب" style="whiteSpace=wrap;html=1;fillColor=#87FFA4;strokeColor=#4BFF30;fontColor=#000000;rounded=1;arcSize=40;" vertex="1" parent="1">
          <mxGeometry x="490" y="615" width="120" height="60" as="geometry" />
        </mxCell>
        <mxCell id="fSD3GuovJM5WZt5JX9Pq-46" value="" style="edgeStyle=orthogonalEdgeStyle;rounded=0;orthogonalLoop=1;jettySize=auto;html=1;" edge="1" parent="1" source="fSD3GuovJM5WZt5JX9Pq-47" target="fSD3GuovJM5WZt5JX9Pq-50">
          <mxGeometry relative="1" as="geometry" />
        </mxCell>
        <mxCell id="fSD3GuovJM5WZt5JX9Pq-47" value="لغو فرآیند" style="whiteSpace=wrap;html=1;fillColor=#87FFA4;strokeColor=#4BFF30;fontColor=#000000;rounded=1;arcSize=40;" vertex="1" parent="1">
          <mxGeometry x="490" y="510" width="120" height="60" as="geometry" />
        </mxCell>
        <mxCell id="fSD3GuovJM5WZt5JX9Pq-48" value="خیر" style="edgeStyle=orthogonalEdgeStyle;rounded=0;orthogonalLoop=1;jettySize=auto;html=1;" edge="1" parent="1" source="fSD3GuovJM5WZt5JX9Pq-50" target="fSD3GuovJM5WZt5JX9Pq-55">
          <mxGeometry relative="1" as="geometry">
            <mxPoint x="200" y="410" as="targetPoint" />
          </mxGeometry>
        </mxCell>
        <mxCell id="fSD3GuovJM5WZt5JX9Pq-49" value="بله" style="edgeStyle=orthogonalEdgeStyle;rounded=0;orthogonalLoop=1;jettySize=auto;html=1;" edge="1" parent="1" source="fSD3GuovJM5WZt5JX9Pq-50" target="fSD3GuovJM5WZt5JX9Pq-51">
          <mxGeometry relative="1" as="geometry" />
        </mxCell>
        <mxCell id="fSD3GuovJM5WZt5JX9Pq-50" value="" style="rhombus;whiteSpace=wrap;html=1;fillColor=#87FFA4;strokeColor=#4BFF30;fontColor=#000000;rounded=1;arcSize=40;" vertex="1" parent="1">
          <mxGeometry x="510" y="370" width="80" height="80" as="geometry" />
        </mxCell>
        <mxCell id="fSD3GuovJM5WZt5JX9Pq-51" value="" style="ellipse;html=1;shape=endState;fillColor=#000000;strokeColor=#ff0000;" vertex="1" parent="1">
          <mxGeometry x="665" y="730" width="30" height="30" as="geometry" />
        </mxCell>
        <mxCell id="fSD3GuovJM5WZt5JX9Pq-52" value="ثبت نتیجه آزمون تعیین سطح توسط کارکنان" style="text;align=center;fontStyle=1;verticalAlign=middle;spacingLeft=3;spacingRight=3;strokeColor=none;rotatable=0;points=[[0,0.5],[1,0.5]];portConstraint=eastwest;html=1;" vertex="1" parent="1">
          <mxGeometry x="280" y="297" width="180" height="26" as="geometry" />
        </mxCell>
        <mxCell id="fSD3GuovJM5WZt5JX9Pq-53" value="انتخاب ثبت نمره آزمون تعیین سطح" style="whiteSpace=wrap;html=1;fillColor=#87FFA4;strokeColor=#4BFF30;fontColor=#000000;rounded=1;arcSize=40;" vertex="1" parent="1">
          <mxGeometry x="67.5" y="280" width="120" height="60" as="geometry" />
        </mxCell>
        <mxCell id="fSD3GuovJM5WZt5JX9Pq-54" value="" style="endArrow=none;html=1;rounded=0;" edge="1" parent="1" source="fSD3GuovJM5WZt5JX9Pq-53" target="fSD3GuovJM5WZt5JX9Pq-55">
          <mxGeometry relative="1" as="geometry">
            <mxPoint x="173" y="360" as="sourcePoint" />
            <mxPoint x="175" y="630" as="targetPoint" />
          </mxGeometry>
        </mxCell>
        <mxCell id="fSD3GuovJM5WZt5JX9Pq-55" value="وارد کردن نمره" style="whiteSpace=wrap;html=1;fillColor=#87FFA4;strokeColor=#4BFF30;fontColor=#000000;rounded=1;arcSize=40;" vertex="1" parent="1">
          <mxGeometry x="67.5" y="380" width="120" height="60" as="geometry" />
        </mxCell>
        <mxCell id="fSD3GuovJM5WZt5JX9Pq-56" value="" style="endArrow=none;html=1;rounded=0;" edge="1" parent="1" source="fSD3GuovJM5WZt5JX9Pq-55" target="fSD3GuovJM5WZt5JX9Pq-35">
          <mxGeometry relative="1" as="geometry">
            <mxPoint x="138" y="90" as="sourcePoint" />
            <mxPoint x="139" y="130" as="targetPoint" />
          </mxGeometry>
        </mxCell>
      </root>
    </mxGraphModel>
  </diagram>
</mxfile>
